<svg width="57" height="57" viewBox="0 0 57 57" fill="none" xmlns="http://www.w3.org/2000/svg">
<path d="M56.8401 46.9762L49.8976 36.5586L51.1145 36.1786C51.6154 36.0222 51.8946 35.4895 51.7382 34.9887C51.7318 34.968 51.7247 34.9476 51.7168 34.9275L49.5822 29.4375L53.9293 25.3953C54.3134 25.0379 54.335 24.4368 53.9776 24.0527C53.9621 24.0361 53.946 24.0201 53.9293 24.0045L49.5822 19.9633L51.7178 14.4733C51.9079 13.9843 51.6656 13.4338 51.1766 13.2435C51.1564 13.2357 51.136 13.2286 51.1155 13.2222L45.4003 11.44L44.9007 5.57857C44.8786 5.31768 44.7506 5.07733 44.5463 4.91358C44.3431 4.7503 44.0814 4.67834 43.8234 4.71503L37.8755 5.53867L34.8299 0.461934C34.5603 0.011877 33.9767 -0.134302 33.5268 0.135375C33.5152 0.142382 33.5038 0.149507 33.4924 0.156988L28.5002 3.443L23.5089 0.156988C23.0709 -0.13169 22.4816 -0.0105664 22.193 0.427497C22.1855 0.438778 22.1784 0.450297 22.1714 0.461934L19.1257 5.54057L13.1788 4.71693C12.6591 4.64473 12.1793 5.00751 12.1071 5.52715C12.1047 5.5439 12.1029 5.56076 12.1015 5.57762L11.6008 11.439L5.89046 13.2212C5.38958 13.3776 5.1104 13.9103 5.26679 14.4112C5.2732 14.4319 5.28033 14.4523 5.28817 14.4724L7.42279 19.9623L3.07089 24.0045C2.68686 24.362 2.66525 24.9631 3.02268 25.3471C3.03812 25.3637 3.05427 25.3798 3.07089 25.3953L7.41804 29.4366L5.28247 34.9266C5.09235 35.4156 5.3346 35.9661 5.8236 36.1563C5.84379 36.1642 5.86421 36.1713 5.88476 36.1777L7.14539 36.57L0.14113 47.9518C-0.133892 48.3987 0.0052816 48.9838 0.452132 49.2588C0.651867 49.3817 0.889958 49.4265 1.12057 49.3844L10.6517 47.6516L12.3693 56.2395C12.4445 56.6162 12.7392 56.9105 13.1159 56.9853C13.1767 56.9961 13.2385 57.0008 13.3002 56.9995C13.6178 56.9995 13.9144 56.841 14.0906 56.5768L20.7558 46.5791L22.1703 48.9379C22.3035 49.1602 22.5218 49.3184 22.7745 49.3759C22.8453 49.3921 22.9176 49.4001 22.9901 49.3996C23.1758 49.3996 23.3575 49.3451 23.5126 49.2429L28.5001 45.9569L33.4913 49.2429C33.9294 49.5316 34.5186 49.4104 34.8073 48.9724C34.8148 48.9611 34.8219 48.9496 34.8289 48.9379L36.2444 46.5782L42.9095 56.5768C43.0857 56.841 43.3823 56.9995 43.6999 56.9995C43.7617 56.9996 43.8235 56.9936 43.8842 56.9815C44.261 56.9067 44.5556 56.6124 44.6309 56.2357L46.3598 47.5728L55.9642 48.4496C56.4867 48.4969 56.9486 48.1117 56.996 47.5892C57.0156 47.3731 56.9606 47.1567 56.8401 46.9762ZM13.7849 53.6138L12.3314 46.3597C12.2298 45.8517 11.7401 45.5187 11.2303 45.6111L2.8752 47.1311L9.01687 37.1543L11.5999 37.9599L12.0996 43.8213C12.1217 44.0822 12.2497 44.3225 12.4539 44.4863C12.6575 44.6487 12.9188 44.7206 13.1769 44.6848L19.1247 43.8612L19.6748 44.7789L13.7849 53.6138ZM36.5684 42.3479L33.709 47.1149L29.0227 44.0255C28.7056 43.8168 28.2947 43.8168 27.9777 44.0255L23.2904 47.1111L20.431 42.3431C20.2595 42.0569 19.9504 41.8817 19.6168 41.8814C19.5729 41.8813 19.5291 41.8845 19.4857 41.8909L13.9084 42.6623L13.4391 37.1628C13.4062 36.7777 13.1433 36.4509 12.7741 36.3363L7.42279 34.6663L9.41776 29.5249C9.55896 29.162 9.46443 28.7498 9.17932 28.4847L5.11337 24.6999L9.18407 20.9152C9.46918 20.65 9.56371 20.2378 9.42251 19.8749L7.42754 14.7317L12.7807 13.0626C13.1499 12.948 13.4128 12.6212 13.4457 12.2361L13.915 6.73661L19.4924 7.50895C19.8714 7.5631 20.246 7.3845 20.4424 7.0558L23.3018 2.28876L27.9777 5.37432C28.2947 5.58308 28.7056 5.58308 29.0227 5.37432L33.7099 2.28876L36.5694 7.05675C36.7665 7.382 37.1377 7.55953 37.5146 7.50895L43.092 6.73756L43.5613 12.237C43.5942 12.6221 43.8571 12.9489 44.2263 13.0635L49.5795 14.7336L47.5788 19.8749C47.4376 20.2378 47.5321 20.65 47.8172 20.9152L51.887 24.6999L47.8163 28.4847C47.5312 28.7498 47.4366 29.162 47.5778 29.5249L49.5728 34.6682L44.2244 36.3373C43.8552 36.4519 43.5923 36.7787 43.5594 37.1638L43.0901 42.6633L37.5137 41.8947C37.1364 41.8442 36.7653 42.0223 36.5684 42.3479ZM45.6855 45.5997C45.2041 45.5624 44.7694 45.8874 44.669 46.3597L43.2183 53.6109L37.3284 44.776L37.8775 43.8602L43.8244 44.6839C44.3441 44.7561 44.8239 44.3933 44.8961 43.8737C44.8985 43.8569 44.9003 43.8401 44.9017 43.8232L45.4024 37.9618L48.0101 37.1486L54.1575 46.3739L45.6855 45.5997Z" fill="#1F93FF"/>
<path d="M42.7499 19.9502C42.7499 18.3761 41.474 17.1002 39.9 17.1002H33.25V13.3002C33.2527 10.6796 31.1303 8.55291 28.5096 8.55029C28.5064 8.55029 28.5033 8.55029 28.5001 8.55029C27.9755 8.55029 27.5501 8.97565 27.5501 9.50028V14.026L25.8401 17.4384L22.7831 19.8846C22.7522 19.3907 22.345 19.0047 21.8502 19.0002H15.2002C14.6756 19.0002 14.2502 19.4255 14.2502 19.9502V34.2C14.2502 34.7246 14.6756 35.15 15.2002 35.15H21.8502C22.3748 35.15 22.8002 34.7246 22.8002 34.2H37.05C38.6208 34.1921 39.8921 32.9208 39.9 31.35C39.8968 30.8601 39.7658 30.3794 39.52 29.9554C39.6952 29.8461 39.8572 29.7166 40.0026 29.5697C40.9237 28.6739 41.1164 27.2659 40.47 26.1555C40.6452 26.0461 40.8072 25.9167 40.9526 25.7698C41.8737 24.8739 42.0664 23.4659 41.42 22.3555C41.5952 22.2462 41.7572 22.1167 41.9025 21.9698C42.4478 21.4397 42.7539 20.7105 42.7499 19.9502ZM20.9003 33.25H16.1503V20.9001H20.9003V33.25ZM40.5593 20.6265C40.386 20.8038 40.1478 20.9026 39.9 20.9001H36.1V22.8001H38.95C39.4746 22.8001 39.9 23.2255 39.9 23.7501C39.9008 24.0061 39.7956 24.251 39.6093 24.4265C39.436 24.6038 39.1978 24.7026 38.95 24.7001H35.15V26.6001H38C38.5246 26.6001 38.95 27.0254 38.95 27.5501C38.9508 27.8061 38.8456 28.0509 38.6593 28.2264C38.486 28.4037 38.2478 28.5025 38 28.5H34.2V30.4H37.05C37.5746 30.4 38 30.8254 38 31.35C38.0008 31.606 37.8956 31.8509 37.7093 32.0264C37.536 32.2037 37.2978 32.3025 37.05 32.3H22.8002V22.3061L27.1939 18.7921C27.3012 18.706 27.3887 18.5978 27.4504 18.4748L29.3503 14.6749C29.4161 14.5429 29.4502 14.3976 29.4501 14.2502V10.6127C30.5908 11.013 31.3531 12.0914 31.3501 13.3002V18.0502C31.3501 18.5748 31.7754 19.0002 32.3001 19.0002H39.9C40.4246 19.0002 40.85 19.4255 40.85 19.9502C40.8509 20.2061 40.7456 20.4509 40.5593 20.6265Z" fill="#1F93FF"/>
</svg>
