<svg width="63" height="63" viewBox="0 0 63 63" fill="none" xmlns="http://www.w3.org/2000/svg">
<path d="M62.9585 9.39562C62.9064 9.21569 62.8068 9.05309 62.6702 8.9249C62.5336 8.7967 62.365 8.70763 62.1821 8.66702L55.777 7.21996L54.3299 0.814818C54.2888 0.632415 54.1995 0.464394 54.0713 0.328294C53.9431 0.192194 53.7807 0.0930052 53.601 0.0410818C53.4214 -0.0108416 53.2312 -0.013596 53.0501 0.0331064C52.869 0.0798087 52.7038 0.174255 52.5717 0.306587L45.2051 7.67444C38.9713 3.91282 31.5763 2.563 24.4156 3.8797C17.2549 5.1964 10.8237 9.08857 6.33584 14.8217C1.84795 20.5548 -0.386285 27.7323 0.0547746 34.9997C0.495834 42.2671 3.58168 49.1217 8.72996 54.27C13.8782 59.4183 20.7329 62.5042 28.0003 62.9452C35.2677 63.3863 42.4452 61.152 48.1783 56.6642C53.9114 52.1763 57.8035 45.7451 59.1202 38.5844C60.4369 31.4237 59.0871 24.0286 55.3255 17.7949L62.6951 10.4252C62.827 10.2928 62.9211 10.1274 62.9674 9.94637C63.0137 9.76529 63.0106 9.57511 62.9585 9.39562ZM57.5203 33.1977C57.5194 39.2992 55.5051 45.23 51.7897 50.0699C48.0743 54.9098 42.8655 58.3883 36.9715 59.9659C31.0774 61.5435 24.8274 61.1319 19.1912 58.7949C13.5549 56.458 8.84731 52.3264 5.79874 47.041C2.75017 41.7557 1.53101 35.612 2.33037 29.563C3.12973 23.514 5.90293 17.8979 10.2198 13.5859C14.5366 9.27383 20.1558 6.50689 26.2057 5.71427C32.2555 4.92165 38.3978 6.14766 43.6798 9.20212L40.2966 12.5854C40.2675 12.6184 40.2406 12.6533 40.216 12.6899C35.3308 10.2028 29.7188 9.53975 24.3886 10.8199C19.0584 12.1 14.3596 15.2393 11.1367 19.6736C7.91388 24.1078 6.37832 29.5463 6.80607 35.0113C7.23383 40.4764 9.59685 45.6096 13.4704 49.4884C17.344 53.3673 22.474 55.7373 27.9385 56.1725C33.4029 56.6077 38.8434 55.0795 43.2821 51.8627C47.7207 48.6458 50.8664 43.9513 52.1538 38.6228C53.4411 33.2944 52.7857 27.6815 50.3053 22.793C50.3437 22.7658 50.3802 22.7361 50.4146 22.704L53.7978 19.3208C56.241 23.537 57.5253 28.3247 57.5203 33.1977ZM47.8251 22.6186C50.3917 27.0001 51.2737 32.1669 50.306 37.1518C49.3383 42.1367 46.5872 46.5981 42.5676 49.7011C38.548 52.8041 33.5354 54.336 28.4679 54.01C23.4004 53.684 18.6254 51.5226 15.0364 47.9302C11.4475 44.3378 9.29066 39.5607 8.96958 34.4929C8.6485 29.4251 10.1852 24.4139 13.292 20.3973C16.3989 16.3807 20.863 13.6339 25.8488 12.671C30.8346 11.7081 36.0005 12.5951 40.3796 15.1659L41.4803 20.0416L40.4244 21.0975C37.2756 18.3324 33.175 16.9003 28.9895 17.1039C24.8039 17.3074 20.8616 19.1307 17.9961 22.1883C15.1305 25.2458 13.5663 29.2979 13.6342 33.4878C13.702 37.6778 15.3967 41.6771 18.3598 44.6402C21.3229 47.6033 25.3222 49.2979 29.5121 49.3658C33.702 49.4337 37.7541 47.8695 40.8117 45.0039C43.8692 42.1383 45.6925 38.196 45.8961 34.0105C46.0996 29.825 44.6675 25.7243 41.9025 22.5756L42.9584 21.5197L47.8251 22.6186ZM34.2964 33.1977C34.3 34.1968 33.9719 35.1688 33.3635 35.9613C32.7551 36.7537 31.9008 37.3218 30.9347 37.5763C29.9686 37.8308 28.9453 37.7574 28.0254 37.3675C27.1055 36.9776 26.3411 36.2934 25.8521 35.4222C25.3631 34.5509 25.1772 33.542 25.3235 32.5537C25.4698 31.5654 25.9401 30.6536 26.6606 29.9614C27.3811 29.2693 28.311 28.8359 29.3044 28.7293C30.2978 28.6227 31.2984 28.849 32.1494 29.3725L29.063 32.4589C28.9632 32.5553 28.8836 32.6707 28.8288 32.7982C28.7741 32.9257 28.7453 33.0629 28.7441 33.2016C28.7429 33.3404 28.7694 33.478 28.8219 33.6065C28.8745 33.7349 28.9522 33.8516 29.0503 33.9497C29.1484 34.0478 29.2652 34.1254 29.3936 34.1779C29.5221 34.2304 29.6597 34.2568 29.7985 34.2556C29.9372 34.2544 30.0744 34.2255 30.2019 34.1707C30.3294 34.1159 30.4447 34.0363 30.5411 33.9364L33.6275 30.85C34.0644 31.5551 34.2961 32.3681 34.2964 33.1977ZM33.6537 27.8681C32.3072 26.8928 30.6426 26.4606 28.9917 26.6577C27.3407 26.8549 25.8247 27.6668 24.7457 28.9318C23.6667 30.1968 23.1039 31.8219 23.1695 33.4832C23.2351 35.1446 23.9243 36.7202 25.0998 37.8961C26.2752 39.0721 27.8506 39.7619 29.5119 39.8282C31.1733 39.8945 32.7986 39.3324 34.064 38.2539C35.3294 37.1753 36.142 35.6596 36.3398 34.0088C36.5376 32.3579 36.1061 30.6931 35.1313 29.3462L40.4214 24.0561C42.7917 26.8099 44.0023 30.3753 43.7987 34.003C43.595 37.6307 41.9931 41.0382 39.3295 43.5094C36.6659 45.9807 33.1481 47.3231 29.5153 47.2547C25.8825 47.1864 22.4177 45.7124 19.849 43.1427C17.2803 40.5729 15.8078 37.1075 15.7408 33.4747C15.6739 29.8419 17.0178 26.3246 19.4901 23.662C21.9624 20.9994 25.3706 19.3988 28.9984 19.1967C32.6262 18.9945 36.1911 20.2065 38.9439 22.578L33.6537 27.8681ZM53.2687 16.8937L49.3462 20.8156L48.7579 20.683L48.7352 20.6776L43.5006 19.4993L42.1814 13.6568L52.7115 3.12485L53.8862 8.32421C53.9298 8.51697 54.0271 8.69343 54.1668 8.83316C54.3065 8.9729 54.483 9.07018 54.6757 9.11373L59.8751 10.2885L53.2687 16.8937Z" fill="#1F93FF"/>
</svg>
