<svg width="57" height="57" viewBox="0 0 57 57" fill="none" xmlns="http://www.w3.org/2000/svg">
<g clip-path="url(#clip0)">
<path d="M31.2858 19.5668C25.6069 13.32 16.0474 12.9415 9.89529 18.5256C9.61153 18.8098 9.23303 19.0936 8.94881 19.4721L8.57031 20.1348L9.04355 20.7028L9.13829 20.7971C14.7224 26.9492 24.2819 27.3281 30.434 21.7435C30.7178 21.4598 31.0963 21.176 31.3805 20.7971L31.8537 20.1348L31.2858 19.5668ZM18.2246 20.1348C18.2246 19.0936 19.0763 18.2418 20.1175 18.2418C21.1583 18.2418 22.0105 19.0936 22.0105 20.1348C22.0105 21.176 21.1583 22.0277 20.1175 22.0277C19.0763 22.0277 18.2246 21.176 18.2246 20.1348ZM18.8868 16.5379C16.8991 17.2006 15.8584 19.2831 16.4259 21.2703C16.8048 22.4062 17.6566 23.3527 18.8868 23.7312C15.9527 23.4475 13.1132 22.2168 10.9365 20.1348C13.208 18.0524 15.9527 16.8221 18.8868 16.5379ZM21.3478 23.7312C23.3355 23.069 24.3767 20.9865 23.8087 18.9988C23.4302 17.8633 22.578 16.9169 21.3478 16.5379C24.2819 16.8221 27.1214 18.0524 29.2981 20.1348C27.0266 22.2168 24.2819 23.4475 21.3478 23.7312Z" fill="#1F93FF"/>
<path d="M20.1174 4.04468C11.2202 4.04468 4.02734 11.238 4.02734 20.1348C4.02734 29.0316 11.2202 36.2249 20.1174 36.2249C29.0142 36.2249 36.2076 29.0316 36.2076 20.1348C36.2076 11.238 29.0142 4.04468 20.1174 4.04468ZM20.1174 34.3319C12.2614 34.3319 5.9203 27.9904 5.9203 20.1348C5.9203 12.2787 12.2614 5.93763 20.1174 5.93763C27.973 5.93763 34.3146 12.2787 34.3146 20.1348C34.3146 27.9904 27.973 34.3319 20.1174 34.3319Z" fill="#1F93FF"/>
<path d="M52.2979 40.9573V9.7236C52.2979 7.07318 50.2155 4.99121 47.5655 4.99121H37.1543V6.88416H47.5655C49.1743 6.88416 50.405 8.1144 50.405 9.7236V40.9573H52.2979Z" fill="#1F93FF"/>
<path d="M4.97412 38.1179V47.5827C4.97412 50.2326 7.05609 52.3151 9.70651 52.3151H42.8332V50.4221H9.70651C8.09731 50.4221 6.86708 49.1914 6.86708 47.5827V38.1179H4.97412Z" fill="#1F93FF"/>
<path d="M39.9937 9.72363H48.512V11.6166H39.9937V9.72363Z" fill="#1F93FF"/>
<path d="M41.8867 14.4559H48.5121V16.3489H41.8867V14.4559Z" fill="#1F93FF"/>
<path d="M41.8867 19.1884H48.5121V21.0813H41.8867V19.1884Z" fill="#1F93FF"/>
<path d="M41.8867 23.9207H48.5121V25.8136H41.8867V23.9207Z" fill="#1F93FF"/>
<path d="M41.8867 28.6531H48.5121V30.546H41.8867V28.6531Z" fill="#1F93FF"/>
<path d="M42.833 33.3855H48.5119V35.2785H42.833V33.3855Z" fill="#1F93FF"/>
<path d="M8.75977 41.9038H34.3146V43.7968H8.75977V41.9038Z" fill="#1F93FF"/>
<path d="M8.75977 45.6897H38.1005V47.5827H8.75977V45.6897Z" fill="#1F93FF"/>
<path d="M13.4922 27.7067H26.7429V29.5996H13.4922V27.7067Z" fill="#1F93FF"/>
<path d="M13.4922 10.67H26.7429V12.563H13.4922V10.67Z" fill="#1F93FF"/>
<path d="M45.9564 39.916C45.3884 39.348 44.7262 39.0643 43.9687 39.0643H43.3064L36.4916 31.3977C42.7385 22.3115 40.5613 9.91251 31.4755 3.5714C22.3892 -2.77018 9.89553 -0.403992 3.64868 8.58754C-2.59769 17.5791 -0.420982 30.0728 8.66529 36.4139C15.8586 41.4305 25.5124 41.1463 32.422 35.6569L39.0473 43.1339V43.8914C39.0473 44.6484 39.3311 45.4054 39.899 45.8786L49.7423 55.7224C51.4458 57.4258 54.0962 57.4258 55.7997 55.7224C57.5036 54.0184 57.5036 51.3685 55.7997 49.6645L45.9564 39.916ZM2.13469 20.1347C2.13469 10.1967 10.1797 2.15168 20.1178 2.15168C30.0558 2.15168 38.1008 10.1967 38.1008 20.1347C38.1008 30.0728 30.0558 38.1178 20.1178 38.1178C10.1797 38.1178 2.13469 30.0728 2.13469 20.1347ZM33.8417 34.5209C34.3149 34.0477 34.8824 33.4802 35.2614 33.0069L41.5078 40.0108L39.9938 41.4305L33.8417 34.5209ZM52.7712 55.1544C52.1085 55.1544 51.5405 54.8702 51.0673 54.4917L41.224 44.6484C41.0345 44.4589 40.9403 44.2699 40.9403 43.9857V43.2287L43.2117 40.9572H43.9687C44.2529 40.9572 44.4419 41.052 44.6314 41.241L54.4747 51.0843C55.4212 52.0307 55.4212 53.5452 54.4747 54.4917C54.0014 54.8702 53.3387 55.1544 52.7712 55.1544Z" fill="#1F93FF"/>
</g>
<defs>
<clipPath id="clip0">
<rect width="57" height="57" fill="white"/>
</clipPath>
</defs>
</svg>
