<svg width="57" height="57" viewBox="0 0 57 57" fill="none" xmlns="http://www.w3.org/2000/svg">
<path d="M48.45 13.8938H35.15V12.9438C35.1444 8.22395 31.3198 4.39937 26.6 4.3938H8.55C3.83015 4.39937 0.00556641 8.22395 0 12.9438V24.3438C0.00556641 29.0636 3.83015 32.8882 8.55 32.8938H9.5V40.4938C9.5 40.8779 9.73147 41.2244 10.0863 41.3714C10.4412 41.5185 10.8499 41.4368 11.1217 41.1655L19.3934 32.8938H21.85V33.8438C21.8556 38.5636 25.6802 42.3882 30.4 42.3938H35.7066L45.8783 52.5655C46.1501 52.8368 46.5588 52.9185 46.9137 52.7714C47.2685 52.6244 47.5 52.2779 47.5 51.8938V42.3938H48.45C53.1698 42.3882 56.9944 38.5636 57 33.8438V22.4438C56.9944 17.724 53.1698 13.8994 48.45 13.8938ZM19 30.9938C18.7481 30.9938 18.5064 31.094 18.3283 31.2721L11.4 38.2004V31.9438C11.4 31.4192 10.9746 30.9938 10.45 30.9938H8.55C4.87895 30.9896 1.90417 28.0148 1.9 24.3438V12.9438C1.90417 9.27275 4.87895 6.29797 8.55 6.2938H26.6C30.271 6.29797 33.2458 9.27275 33.25 12.9438V13.8938H30.4C25.6802 13.8994 21.8556 17.724 21.85 22.4438V30.9938H19ZM55.1 33.8438C55.0958 37.5148 52.121 40.4896 48.45 40.4938H46.55C46.0254 40.4938 45.6 40.9192 45.6 41.4438V49.6004L36.7717 40.7721C36.5936 40.594 36.3519 40.4938 36.1 40.4938H30.4C26.729 40.4896 23.7542 37.5148 23.75 33.8438V22.4438C23.7542 18.7728 26.729 15.798 30.4 15.7938H48.45C52.121 15.798 55.0958 18.7728 55.1 22.4438V33.8438Z" fill="#1F93FF"/>
<path d="M50.35 21.4938H28.5C27.9754 21.4938 27.55 21.9191 27.55 22.4438C27.55 22.9684 27.9754 23.3938 28.5 23.3938H50.35C50.8747 23.3938 51.3 22.9684 51.3 22.4438C51.3 21.9191 50.8747 21.4938 50.35 21.4938Z" fill="#1F93FF"/>
<path d="M50.35 27.1937H28.5C27.9754 27.1937 27.55 27.6191 27.55 28.1437C27.55 28.6683 27.9754 29.0937 28.5 29.0937H50.35C50.8747 29.0937 51.3 28.6683 51.3 28.1437C51.3 27.6191 50.8747 27.1937 50.35 27.1937Z" fill="#1F93FF"/>
<path d="M50.35 32.8938H28.5C27.9754 32.8938 27.55 33.3192 27.55 33.8438C27.55 34.3684 27.9754 34.7938 28.5 34.7938H50.35C50.8747 34.7938 51.3 34.3684 51.3 33.8438C51.3 33.3192 50.8747 32.8938 50.35 32.8938Z" fill="#1F93FF"/>
<path d="M5.7 13.8938H25.65C26.1746 13.8938 26.6 13.4684 26.6 12.9438C26.6 12.4191 26.1746 11.9938 25.65 11.9938H5.7C5.17537 11.9938 4.75 12.4191 4.75 12.9438C4.75 13.4684 5.17537 13.8938 5.7 13.8938Z" fill="#1F93FF"/>
<path d="M19.95 17.6937H5.7C5.17537 17.6937 4.75 18.1191 4.75 18.6437C4.75 19.1684 5.17537 19.5937 5.7 19.5937H19.95C20.4746 19.5937 20.9 19.1684 20.9 18.6437C20.9 18.1191 20.4746 17.6937 19.95 17.6937Z" fill="#1F93FF"/>
<path d="M19 23.3938H5.7C5.17537 23.3938 4.75 23.8192 4.75 24.3438C4.75 24.8684 5.17537 25.2938 5.7 25.2938H19C19.5246 25.2938 19.95 24.8684 19.95 24.3438C19.95 23.8192 19.5246 23.3938 19 23.3938Z" fill="#1F93FF"/>
</svg>
