<svg width="57" height="58" viewBox="0 0 57 58" fill="none" xmlns="http://www.w3.org/2000/svg">
<g clip-path="url(#clip0)">
<path d="M37.4053 18.5903C37.2743 18.1873 36.9257 17.8937 36.5065 17.8328L31.6633 17.1303L29.4963 12.7424C29.3086 12.3625 28.9218 12.1221 28.4981 12.1221H28.4979C28.0741 12.1222 27.6872 12.3629 27.4998 12.743L25.3352 17.132L20.4924 17.837C20.073 17.898 19.7248 18.1919 19.594 18.5949C19.4632 18.998 19.5725 19.4404 19.876 19.7361L23.3813 23.1511L22.5553 27.9746C22.4837 28.3923 22.6556 28.8144 22.9985 29.0634C23.1924 29.2042 23.422 29.2758 23.6527 29.2758C23.8299 29.2758 24.0079 29.2335 24.1709 29.1478L28.5019 26.8693L32.8342 29.1455C33.2092 29.3426 33.6638 29.3097 34.0066 29.0604C34.3494 28.8113 34.5209 28.3891 34.4492 27.9715L33.6207 23.1484L37.1242 19.7316C37.4274 19.4357 37.5364 18.9933 37.4053 18.5903ZM31.647 21.9631C31.3847 22.2189 31.265 22.5874 31.327 22.9486L31.8727 26.1253L29.0193 24.6262C28.695 24.4557 28.3074 24.4559 27.9831 24.6264L25.1305 26.1271L25.6745 22.95C25.7364 22.5889 25.6165 22.2204 25.3541 21.9646L23.0454 19.7154L26.2351 19.251C26.5977 19.1982 26.911 18.9703 27.0731 18.6418L28.4988 15.7511L29.9262 18.6411C30.0885 18.9697 30.402 19.1973 30.7646 19.2499L33.9545 19.7126L31.647 21.9631Z" fill="#1F93FF"/>
<path d="M53.5197 49.5997L44.3177 33.594C47.0966 30.1252 48.7615 25.7274 48.7615 20.9474C48.7615 9.77498 39.6721 0.685547 28.4997 0.685547C17.3273 0.685547 8.23785 9.77498 8.23785 20.9474C8.23785 25.7274 9.90266 30.1252 12.6816 33.594L3.47966 49.5997C3.26835 49.9673 3.28416 50.4231 3.52051 50.7753C3.75686 51.1273 4.17312 51.3145 4.59294 51.2581L11.7751 50.2936L14.5309 56.9958C14.6924 57.3882 15.0629 57.6548 15.4864 57.6831C15.5113 57.6848 15.5361 57.6855 15.5608 57.6855C15.9566 57.6855 16.325 57.4748 16.5247 57.1289L25.8143 41.0389C25.8158 41.0364 25.8168 41.0339 25.8182 41.0313C26.6959 41.1479 27.5908 41.2091 28.4999 41.2091C29.409 41.2091 30.3039 41.1479 31.1816 41.0313C31.183 41.0338 31.184 41.0363 31.1855 41.0389L40.4751 57.1289C40.6748 57.4748 41.0433 57.6855 41.439 57.6855C41.4637 57.6855 41.4885 57.6848 41.5135 57.6831C41.937 57.6548 42.3075 57.3882 42.4689 56.9958L45.2248 50.2936L52.407 51.2581C52.8277 51.3145 53.2431 51.1273 53.4794 50.7753C53.7151 50.4231 53.731 49.9673 53.5197 49.5997ZM15.7287 54.0542L13.7226 49.1756L15.5229 46.2377C15.8442 45.7135 15.6796 45.028 15.1554 44.7068C14.6311 44.3857 13.9457 44.5501 13.6245 45.0743L11.8053 48.043L6.53608 48.7505L14.2485 35.3358C16.7748 37.8382 19.9539 39.6821 23.5048 40.5857L15.7287 54.0542ZM28.4996 38.9826C18.5549 38.9826 10.4643 30.892 10.4643 20.9474C10.4643 11.0027 18.5549 2.91212 28.4996 2.91212C38.4442 2.91212 46.5348 11.0027 46.5348 20.9474C46.5348 30.892 38.4442 38.9826 28.4996 38.9826ZM45.194 48.043L43.3748 45.0743C43.0536 44.5501 42.3681 44.3854 41.8439 44.7068C41.3196 45.0281 41.1551 45.7135 41.4764 46.2377L43.2767 49.1756L41.2705 54.0542L33.4944 40.5857C37.0454 39.6821 40.2246 37.8382 42.7508 35.3358L50.4632 48.7505L45.194 48.043Z" fill="#1F93FF"/>
<path d="M28.4998 6.47461C26.0154 6.47461 23.5642 7.11497 21.4113 8.32668C20.8754 8.62815 20.6855 9.30704 20.987 9.84286C21.2885 10.3787 21.9673 10.5688 22.5032 10.2671C24.3235 9.24269 26.3971 8.70118 28.4998 8.70118C35.2523 8.70118 40.746 14.1948 40.746 20.9473C40.746 22.7925 40.3462 24.5654 39.5577 26.2168C39.2929 26.7716 39.5279 27.4361 40.0828 27.7011C40.2376 27.775 40.4008 27.81 40.5617 27.81C40.9772 27.81 41.3761 27.5761 41.5671 27.1761C42.4996 25.2228 42.9725 23.1272 42.9725 20.9473C42.9725 12.9671 36.4802 6.47461 28.4998 6.47461Z" fill="#1F93FF"/>
<path d="M38.8595 29.4553C38.4183 29.0272 37.7135 29.0377 37.2853 29.4789L37.2606 29.5043C36.8311 29.9442 36.8394 30.6491 37.2793 31.0786C37.4958 31.29 37.7765 31.3954 38.0569 31.3954C38.3463 31.3954 38.6355 31.2833 38.8536 31.0598L38.883 31.0296C39.3113 30.5884 39.3007 29.8836 38.8595 29.4553Z" fill="#1F93FF"/>
<path d="M35.913 32.1187C35.6163 31.5802 34.9392 31.3842 34.4007 31.681C32.6048 32.6706 30.5643 33.1936 28.4997 33.1936C21.7472 33.1936 16.2535 27.6999 16.2535 20.9474C16.2535 19.1785 16.6222 17.4725 17.349 15.8768C17.604 15.3173 17.3569 14.6571 16.7974 14.4022C16.2378 14.1473 15.5777 14.3943 15.3227 14.9538C14.4628 16.8413 14.0269 18.8578 14.0269 20.9474C14.0269 28.9277 20.5193 35.4202 28.4996 35.4202C30.9389 35.4202 33.3511 34.8015 35.4752 33.631C36.0137 33.3342 36.2098 32.6572 35.913 32.1187Z" fill="#1F93FF"/>
<path d="M19.4826 11.0279C19.0327 10.6088 18.3282 10.6339 17.9092 11.0837L17.8845 11.1103C17.467 11.5616 17.4943 12.266 17.9456 12.6835C18.1597 12.8817 18.4308 12.9796 18.7013 12.9796C19.0008 12.9796 19.2993 12.8595 19.5188 12.6224L19.5384 12.6013C19.9574 12.1514 19.9325 11.447 19.4826 11.0279Z" fill="#1F93FF"/>
</g>
<defs>
<clipPath id="clip0">
<rect y="0.685547" width="57" height="57" fill="white"/>
</clipPath>
</defs>
</svg>
