<svg width="60" height="58" viewBox="0 0 60 58" fill="none" xmlns="http://www.w3.org/2000/svg">
<path d="M59.8843 31.5689C59.3456 26.1503 56.9248 21.0419 53.0676 17.1846C49.7713 13.8885 45.7367 11.7703 41.4914 10.8284V7.85086C43.2254 7.41949 44.5142 5.84997 44.5142 3.98443C44.5142 1.78737 42.7269 0 40.5298 0H32.0922C29.8951 0 28.1077 1.78737 28.1077 3.98443C28.1077 5.84985 29.3966 7.41937 31.1304 7.85086V10.8367C26.8981 11.7826 22.8769 13.8978 19.5899 17.1848C18.8706 17.9041 18.2073 18.6586 17.6002 19.4429C17.5708 19.4406 17.5414 19.4384 17.5114 19.4384H9.16033C8.51321 19.4384 7.98844 19.9631 7.98844 20.6103C7.98844 21.2575 8.51321 21.7822 9.16033 21.7822H16.0056C15.1464 23.2207 14.4535 24.7314 13.9262 26.2865H1.17189C0.524774 26.2865 0 26.8111 0 27.4584C0 28.1056 0.524774 28.6303 1.17189 28.6303H13.2639C12.9262 30.1128 12.7324 31.6216 12.6823 33.1347H7.50011C6.85299 33.1347 6.32822 33.6593 6.32822 34.3066C6.32822 34.9538 6.85299 35.4785 7.50011 35.4785H12.7197C12.8186 36.9954 13.0625 38.5043 13.4515 39.9829H5.85946C5.21234 39.9829 4.68757 40.5075 4.68757 41.1548C4.68757 41.802 5.21234 42.3267 5.85946 42.3267H14.1994C15.349 45.3678 17.1456 48.2182 19.5899 50.6626C23.4509 54.5235 28.5645 56.9448 33.9888 57.4807C34.7629 57.5572 35.5376 57.595 36.3113 57.595C40.8843 57.595 45.3991 56.2716 49.23 53.7769C49.7724 53.4237 49.9258 52.6977 49.5726 52.1553C49.2194 51.613 48.4934 51.4596 47.951 51.8128C39.5653 57.2734 28.3347 56.0928 21.2472 49.0053C12.9312 40.6893 12.9312 27.1583 21.2472 18.8422C29.5631 10.5263 43.0941 10.5263 51.4102 18.8422C58.4883 25.9204 59.6755 37.1414 54.2328 45.523C53.8803 46.0658 54.0347 46.7917 54.5774 47.1441C55.1204 47.4966 55.8461 47.3422 56.1985 46.7994C59.1064 42.321 60.4154 36.9122 59.8843 31.5689ZM30.4515 3.98455C30.4515 3.07985 31.1875 2.3439 32.0922 2.3439H40.5298C41.4345 2.3439 42.1704 3.07985 42.1704 3.98455C42.1704 4.88925 41.4345 5.6252 40.5298 5.6252H40.3195H32.3023H32.0922C31.1875 5.6252 30.4515 4.88914 30.4515 3.98455ZM33.4742 10.4338V7.96899H39.1477V10.4296C37.2637 10.2055 35.3578 10.2069 33.4742 10.4338Z" fill="#1898F6"/>
<path d="M52.2393 48.6615C51.9299 48.6615 51.6287 48.7869 51.4109 49.0049C51.1917 49.2228 51.0674 49.5252 51.0674 49.8334C51.0674 50.1416 51.1917 50.4439 51.4109 50.6619C51.6287 50.881 51.93 51.0052 52.2393 51.0052C52.5475 51.0052 52.8486 50.881 53.0678 50.6619C53.2857 50.4439 53.4111 50.1416 53.4111 49.8334C53.4111 49.5252 53.2859 49.2228 53.0678 49.0049C52.8486 48.7869 52.5473 48.6615 52.2393 48.6615Z" fill="#1898F6"/>
<path d="M36.3289 15.744C26.3047 15.744 18.1494 23.8992 18.1494 33.9235C18.1494 43.9477 26.3047 52.1029 36.3289 52.1029C46.353 52.1029 54.5083 43.9477 54.5083 33.9235C54.5083 23.8992 46.353 15.744 36.3289 15.744ZM36.3289 49.7591C27.597 49.7591 20.4932 42.6552 20.4932 33.9235C20.4932 25.1917 27.597 18.0878 36.3289 18.0878C45.0608 18.0878 52.1645 25.1917 52.1645 33.9235C52.1645 42.6552 45.0608 49.7591 36.3289 49.7591Z" fill="#1898F6"/>
<path d="M43.7419 24.8532L37.9375 30.6575C37.4521 30.4175 36.9061 30.2819 36.329 30.2819C35.7517 30.2819 35.2058 30.4175 34.7204 30.6575L32.1227 28.0598C31.665 27.6021 30.9231 27.6021 30.4653 28.0598C30.0077 28.5174 30.0077 29.2594 30.4653 29.7171L33.063 32.3148C32.8229 32.8002 32.6874 33.3462 32.6874 33.9233C32.6874 35.9312 34.3209 37.5649 36.329 37.5649C38.337 37.5649 39.9705 35.9312 39.9705 33.9233C39.9705 33.3462 39.8349 32.8002 39.5949 32.3148L45.2289 26.6808L45.3992 26.5105C45.8568 26.0529 45.8568 25.3109 45.3992 24.8532C44.9416 24.3956 44.1998 24.3956 43.7419 24.8532ZM36.329 35.2212C35.6134 35.2212 35.0312 34.639 35.0312 33.9234C35.0312 33.2079 35.6134 32.6257 36.329 32.6257C37.0445 32.6257 37.6267 33.2079 37.6267 33.9234C37.6267 34.639 37.0445 35.2212 36.329 35.2212Z" fill="#1898F6"/>
<path d="M48.8587 32.7659H47.7729C47.1258 32.7659 46.6011 33.2905 46.6011 33.9377C46.6011 34.585 47.1258 35.1096 47.7729 35.1096H48.8587C49.5058 35.1096 50.0306 34.585 50.0306 33.9377C50.0306 33.2905 49.5058 32.7659 48.8587 32.7659Z" fill="#1898F6"/>
<path d="M24.8845 32.7373H23.7988C23.1517 32.7373 22.627 33.262 22.627 33.9092C22.627 34.5564 23.1517 35.0811 23.7988 35.0811H24.8845C25.5316 35.0811 26.0563 34.5564 26.0563 33.9092C26.0563 33.262 25.5316 32.7373 24.8845 32.7373Z" fill="#1898F6"/>
<path d="M36.3433 23.6512C36.9904 23.6512 37.5151 23.1265 37.5151 22.4793V21.3937C37.5151 20.7464 36.9904 20.2218 36.3433 20.2218C35.6962 20.2218 35.1714 20.7464 35.1714 21.3937V22.4793C35.1714 23.1265 35.6962 23.6512 36.3433 23.6512Z" fill="#1898F6"/>
<path d="M36.3145 44.1958C35.6673 44.1958 35.1426 44.7204 35.1426 45.3677V46.4533C35.1426 47.1005 35.6673 47.6252 36.3145 47.6252C36.9616 47.6252 37.4863 47.1005 37.4863 46.4533V45.3677C37.4863 44.7204 36.9616 44.1958 36.3145 44.1958Z" fill="#1898F6"/>
<path d="M1.17187 39.9824C0.863671 39.9824 0.561328 40.1078 0.343359 40.3258C0.125391 40.5437 0 40.8461 0 41.1543C0 41.4637 0.125273 41.7648 0.343359 41.9828C0.561445 42.2008 0.863671 42.3262 1.17187 42.3262C1.48008 42.3262 1.78242 42.2008 2.00027 41.9828C2.21824 41.7648 2.34375 41.4625 2.34375 41.1543C2.34375 40.8461 2.21836 40.5437 2.00027 40.3258C1.78242 40.1078 1.48008 39.9824 1.17187 39.9824Z" fill="#1898F6"/>
</svg>
