<?xml version="1.0"?>
<svg xmlns="http://www.w3.org/2000/svg" id="Layer" enable-background="new 0 0 64 64" height="512px" viewBox="0 0 64 64" width="512px"><g><path d="m23.567 27.604c-.771.792-.754 2.058.037 2.828l6.567 6.396c.783.782 1.81 1.172 2.836 1.172 1.019 0 2.034-.386 2.803-1.154l6.586-6.414c.791-.771.808-2.037.037-2.828-.77-.791-2.037-.808-2.828-.037l-6.623 6.414-6.586-6.414c-.792-.771-2.059-.754-2.829.037z" data-original="#000000" class="active-path" data-old_color="#000000" fill="#002B6B"/><path d="m30.282 12.189c1.758-.252 3.67-.252 5.434 0 .097.014.191.021.286.021.979 0 1.834-.72 1.977-1.717.156-1.094-.604-2.107-1.696-2.263-2.138-.305-4.433-.305-6.566 0-1.094.157-1.854 1.17-1.696 2.263.156 1.094 1.18 1.85 2.261 1.696z" data-original="#000000" class="active-path" data-old_color="#000000" fill="#002B6B"/><path d="m32.999 55.999c13.233 0 24-10.767 24-24 0-9.061-5.016-17.253-13.09-21.381-.983-.504-2.188-.113-2.691.87-.502.984-.112 2.188.871 2.691 6.729 3.44 10.91 10.269 10.91 17.819 0 11.028-8.972 20-20 20s-20-8.972-20-20c0-7.551 4.181-14.379 10.91-17.819.983-.503 1.373-1.708.871-2.691-.504-.983-1.708-1.374-2.691-.87-8.074 4.128-13.09 12.32-13.09 21.381 0 13.233 10.767 24 24 24z" data-original="#000000" class="active-path" data-old_color="#000000" fill="#002B6B"/></g> </svg>
