<svg width="75" height="75" viewBox="0 0 75 75" fill="none" xmlns="http://www.w3.org/2000/svg">
<path d="M37.5 6.25C20.25 6.25 6.25 20.25 6.25 37.5C6.25 54.75 20.25 68.75 37.5 68.75H53.125V62.5H37.5C23.9375 62.5 12.5 51.0625 12.5 37.5C12.5 23.9375 23.9375 12.5 37.5 12.5C51.0625 12.5 62.5 23.9375 62.5 37.5V41.9688C62.5 44.4375 60.2812 46.875 57.8125 46.875C55.3438 46.875 53.125 44.4375 53.125 41.9688V37.5C53.125 28.875 46.125 21.875 37.5 21.875C28.875 21.875 21.875 28.875 21.875 37.5C21.875 46.125 28.875 53.125 37.5 53.125C41.8125 53.125 45.75 51.375 48.5625 48.5312C50.5938 51.3125 54.0938 53.125 57.8125 53.125C63.9688 53.125 68.75 48.125 68.75 41.9688V37.5C68.75 20.25 54.75 6.25 37.5 6.25ZM37.5 46.875C32.3125 46.875 28.125 42.6875 28.125 37.5C28.125 32.3125 32.3125 28.125 37.5 28.125C42.6875 28.125 46.875 32.3125 46.875 37.5C46.875 42.6875 42.6875 46.875 37.5 46.875Z" fill="white"/>
</svg>
